<svg xmlns="http://www.w3.org/2000/svg" xmlns:svg="http://www.w3.org/2000/svg" id="svg19" width="633.878" height="633.878" aria-hidden="true" class="svg-inline--fa fa-tiktok fa-w-14" data-icon="tiktok" data-prefix="fab" focusable="false" role="img" version="1.1" viewBox="0 0 633.878 633.878"><g id="g145" transform="translate(31.957631)"><path id="path17" fill="currentColor" d="m 447.86999,331.91811 a 210.06,210.06 0 0 1 -122.77,-39.25 v 178.72 a 162.55,162.55 0 1 1 -140.23,-161.07 v 89.89 a 74.62,74.62 0 1 0 52.23,71.18 v -349.38 h 88 a 121.18,121.18 0 0 0 1.86,22.17 v 0 a 122.18,122.18 0 0 0 53.91,80.22 121.43,121.43 0 0 0 67,20.14 z"/><path id="path113" fill="currentColor" d="m 423.87194,175.33508 c 0,16.15125 -13.09307,29.24432 -29.24433,29.24432 -16.15125,0 -29.24387,-13.09307 -29.24387,-29.24432 0,-16.15126 13.09307,-29.24433 29.24433,-29.24433 16.15126,0 29.24387,13.09353 29.24387,29.24433 z m 80.21515,21.57671 C 500.27224,126.31369 443.7248,69.695023 373.05135,65.876063 c -4.17149,-0.22559 -7.66761,3.12622 -7.66761,7.30366 v 21.95071 c 0,3.84271 2.96366,7.065287 6.79815,7.314617 51.06809,3.32624 92.00266,44.15897 95.33575,95.33575 0.24979,3.83449 3.47237,6.79815 7.31462,6.79815 h 21.95071 c 4.17789,4.5e-4 7.52971,-3.49566 7.30412,-7.66716 z m 65.87132,0.13152 C 566.12529,90.269393 480.21525,3.8565847 372.91984,0.0047447 c -4.12355,-0.14795 -7.5361,3.18331 -7.5361,7.30914 V 29.264143 c 0,3.9386 3.12121,7.14429 7.05662,7.30594 87.3019,3.57968 157.37394,73.664957 160.95316,160.953167 0.1612,3.93541 3.36688,7.05661 7.30595,7.05661 h 21.95025 c 4.12538,-4.6e-4 7.45664,-3.413 7.30869,-7.53655 z" style="stroke-width:.45665"/></g></svg>